# xmcd CD database file
#
# Track frame offsets:
#	150
#	15123
#	29549
#	45937
#	63357
#	76952
#	94981
#	116808
#	129812
#	142259
#	156642
#	171567
#	188888
#	203629
#	226486
#	237626
#	257885
#
# Disc length: 3717 seconds
#
# Revision: 0
# Processed by: cddbd v1.4PL0 Copyright (c) Steve Scherf et al.
# Submitted via: CDex 1.50beta10
#
DISCID=ef0e8311
DTITLE=Steve Guyger - Past Life Blues (Bonus Tracks)
DYEAR=1999
DGENRE=Blues
TTITLE0=Let's Rock Tonight
TTITLE1=I Tried So Hard
TTITLE2=I Thought I Heard
TTITLE3=Monkey on a Limb
TTITLE4=Blue Mambo
TTITLE5=Somethin's Smellin' Good (At My Baby's House)
TTITLE6=Bricks in My Pillow
TTITLE7=My New Car
TTITLE8=Kansas City Blues
TTITLE9=Snake Oil
TTITLE10=We're Gonna Ride
TTITLE11=No No No
TTITLE12=Same Old Thing
TTITLE13=I Need My Baby
TTITLE14=Come Back
TTITLE15=This Is the First Time
TTITLE16=Rib Shack Boogie
EXTD=YEAR: 1999
EXTT0=
EXTT1=
EXTT2=
EXTT3=
EXTT4=
EXTT5=
EXTT6=
EXTT7=
EXTT8=
EXTT9=
EXTT10=
EXTT11=
EXTT12=
EXTT13=
EXTT14=
EXTT15=
EXTT16=
PLAYORDER=
